<?xml version="1.0" encoding="UTF-8" standalone="no"?>
<svg
   fill="#000000"
   width="800px"
   height="800px"
   viewBox="0 0 24 24"
   version="1.1"
   xmlns="http://www.w3.org/2000/svg"
   xmlns:svg="http://www.w3.org/2000/svg">
  <path
     d="M 12,20.179718 C 7.4895674,20.179718 3.8202824,16.510433 3.8202824,12 3.8202824,7.4895674 7.4895674,3.8202824 12,3.8202824 c 4.510433,0 8.179718,3.669285 8.179718,8.1797176 0,4.510433 -3.669285,8.179718 -8.179718,8.179718 z M 12,4.5762246 C 7.906733,4.5762246 4.5769063,7.906733 4.5769063,12 c 0,4.093267 3.3298267,7.423094 7.4230937,7.423094 4.093267,0 7.423094,-3.329827 7.423094,-7.423094 C 19.423094,7.906733 16.093267,4.5762246 12,4.5762246 Z M 8.0342003,7.9033248 C 8.2741386,6.7458947 9.0587099,5.7022991 10.113212,5.1794788 9.9298498,5.3655674 9.7076341,5.5087125 9.537905,5.7111605 8.842629,6.4609679 8.5290732,7.5461438 8.7206149,8.5440693 8.9625982,10.067542 10.394049,11.31154 11.94615,11.289728 c 1.2031,0.05385 2.375527,-0.6387 2.963785,-1.6822954 1.259676,0.042944 2.484589,0.6932314 3.203722,1.7368264 0.368088,0.544633 0.655741,1.183333 0.675509,1.847935 -0.233122,-0.882728 -0.819335,-1.667299 -1.618903,-2.109686 -0.773665,-0.43557 -1.723875,-0.546677 -2.571158,-0.289698 -1.063363,0.305376 -1.942001,1.174471 -2.244651,2.244651 -0.256979,0.852054 -0.147234,1.791358 0.25698,2.571158 -0.562356,0.974068 -1.578004,1.669344 -2.6802209,1.878608 -0.8479641,0.177909 -1.7388716,0.04022 -2.5282144,-0.316282 0.7061823,0.205856 1.4730308,0.241983 2.1751233,-0.0075 0.941349,-0.311511 1.719104,-1.068135 2.061289,-2.000623 0.378993,-1.015648 0.235167,-2.222838 -0.402851,-3.09466 C 10.759409,11.38175 10.007557,10.897783 9.190267,10.726009 8.9312426,10.679657 8.6694917,10.659208 8.4077407,10.634669 7.9912567,9.7955661 7.8392503,8.8214981 8.0478331,7.9108228 Z"
     id="path1"
     style="stroke-width:0.681643" />
  <rect
     style="fill:none;stroke:#000000;stroke-width:0.43723;stroke-miterlimit:13.9;stroke-dasharray:none;stroke-opacity:0.95787138"
     id="rect1"
     width="23.289663"
     height="23.258856"
     x="0.37057325"
     y="0.37057295" />
</svg>
