<?xml version="1.0" encoding="UTF-8" standalone="no"?>
<svg id="pause" width="600px" height="600px" viewBox="0 0 480 480" xml:space="preserve" version="1.1"
   xmlns="http://www.w3.org/2000/svg"
   xmlns:svg="http://www.w3.org/2000/svg">
   <g transform="matrix(1.006704,0,0,1.003352,0.80133553,0.80133557)">
      <g>
         <g>
            <path d="m 201.654,127.525 h -31.9 c -10.557,0 -19.125,8.645 -19.125,19.125 v 184.9 c 0,10.558 8.645,19.125 19.125,19.125 h 31.9 c 10.557,0 19.125,-8.645 19.125,-19.125 v -184.9 c 0,-10.556 -8.568,-19.125 -19.125,-19.125 z" />
            <path d="m 308.448,127.525 h -31.9 c -10.558,0 -19.125,8.645 -19.125,19.125 v 184.9 c 0,10.558 8.645,19.125 19.125,19.125 h 31.9 c 10.557,0 19.125,-8.645 19.125,-19.125 v -184.9 c 0,-10.556 -8.644,-19.125 -19.125,-19.125 z" />
            <path d="M 239.062,0 C 107.023,0 0,107.023 0,239.062 0,371.101 107.023,478.124 239.062,478.124 371.101,478.124 478.124,371.101 478.124,239.062 478.124,107.023 371.102,0 239.062,0 Z m 0.23,409.811 c -94.171,0 -170.519,-76.424 -170.519,-170.519 0,-94.095 76.424,-170.519 170.519,-170.519 94.095,0 170.519,76.424 170.519,170.519 0,94.095 -76.271,170.519 -170.519,170.519 z" />
         </g>
      </g>
   </g>
</svg>
